<?xml version="1.0" encoding="UTF-8" standalone="no"?>
<!-- Created with Inkscape (http://www.inkscape.org/) -->

<svg
   width="48"
   height="48"
   id="svg53383"
   version="1.1"
   xmlns:xlink="http://www.w3.org/1999/xlink"
   xmlns="http://www.w3.org/2000/svg"
   xmlns:svg="http://www.w3.org/2000/svg"
   xmlns:rdf="http://www.w3.org/1999/02/22-rdf-syntax-ns#"
   xmlns:cc="http://creativecommons.org/ns#"
   xmlns:dc="http://purl.org/dc/elements/1.1/">
  <defs
     id="defs3">
    <linearGradient
       id="linearGradient2300">
      <stop
         id="stop2302"
         offset="0.0000000"
         style="stop-color:#000000;stop-opacity:0.32673267;" />
      <stop
         id="stop2304"
         offset="1"
         style="stop-color:#000000;stop-opacity:0;" />
    </linearGradient>
    <radialGradient
       gradientUnits="userSpaceOnUse"
       r="11.68987"
       fy="72.568001"
       fx="14.287618"
       cy="68.872971"
       cx="14.287618"
       gradientTransform="matrix(1.399258,-2.234445e-7,8.196178e-8,0.513264,4.365074,4.839285)"
       id="radialGradient2308"
       xlink:href="#linearGradient2300" />
    <linearGradient
       xlink:href="#linearGradient3165"
       id="linearGradient3773"
       gradientUnits="userSpaceOnUse"
       gradientTransform="matrix(0.200685,0,0,0.200685,-54.33576,-1.050787)"
       x1="343.77731"
       y1="169.57544"
       x2="447.2099"
       y2="7.4488621" />
    <linearGradient
       id="linearGradient3165">
      <stop
         id="stop3167"
         offset="0"
         style="stop-color:#3e9ade;stop-opacity:1;" />
      <stop
         id="stop3169"
         offset="1"
         style="stop-color:#ffffff;stop-opacity:1;" />
    </linearGradient>
    <filter
       color-interpolation-filters="sRGB"
       id="filter4051"
       x="-0.011174748"
       y="-0.012886196"
       width="1.0223495"
       height="1.0257725">
      <feGaussianBlur
         stdDeviation="0.3160696"
         id="feGaussianBlur4053" />
    </filter>
    <linearGradient
       id="linearGradient4031">
      <stop
         style="stop-color:#ffdb00;stop-opacity:1;"
         offset="0"
         id="stop4033" />
      <stop
         style="stop-color:#fff077;stop-opacity:1;"
         offset="1"
         id="stop4035" />
    </linearGradient>
    <linearGradient
       id="linearGradient4009">
      <stop
         style="stop-color:#ed2200;stop-opacity:1;"
         offset="0"
         id="stop4011" />
      <stop
         style="stop-color:#fe674e;stop-opacity:1;"
         offset="1"
         id="stop4013" />
    </linearGradient>
    <linearGradient
       id="linearGradient4023">
      <stop
         style="stop-color:#00007a;stop-opacity:1;"
         offset="0"
         id="stop4025" />
      <stop
         style="stop-color:#3737ae;stop-opacity:1;"
         offset="1"
         id="stop4027" />
    </linearGradient>
    <linearGradient
       xlink:href="#linearGradient4023"
       id="linearGradient3049"
       gradientUnits="userSpaceOnUse"
       gradientTransform="matrix(0.4704029,0,0,0.4704029,33.457768,70.288002)"
       x1="9.9628201"
       y1="-81.170265"
       x2="-11.264362"
       y2="-54.920265" />
    <linearGradient
       xlink:href="#linearGradient4009"
       id="linearGradient3052"
       gradientUnits="userSpaceOnUse"
       gradientTransform="matrix(0.4704029,0,0,0.4704029,33.457768,70.288002)"
       x1="-6.7380753"
       y1="-65.728729"
       x2="-9.4620743"
       y2="-104.31674" />
    <linearGradient
       xlink:href="#linearGradient4031"
       id="linearGradient3055"
       gradientUnits="userSpaceOnUse"
       gradientTransform="matrix(0.4704029,0,0,0.4704029,33.457768,70.288002)"
       x1="-8.8764257"
       y1="-83.973495"
       x2="25.90625"
       y2="-79.973495" />
  </defs>
  <metadata
     id="metadata4">
    <rdf:RDF>
      <cc:Work
         rdf:about="">
        <dc:format>image/svg+xml</dc:format>
        <dc:type
           rdf:resource="http://purl.org/dc/dcmitype/StillImage" />
        <dc:title>System Applications</dc:title>
        <dc:creator>
          <cc:Agent>
            <dc:title>Jakub Steiner</dc:title>
          </cc:Agent>
        </dc:creator>
        <dc:source>http://jimmac.musichall.cz/</dc:source>
        <dc:subject>
          <rdf:Bag>
            <rdf:li>system</rdf:li>
            <rdf:li>applications</rdf:li>
            <rdf:li>group</rdf:li>
            <rdf:li>category</rdf:li>
            <rdf:li>admin</rdf:li>
            <rdf:li>root</rdf:li>
          </rdf:Bag>
        </dc:subject>
        <cc:license
           rdf:resource="http://creativecommons.org/publicdomain/zero/1.0/" />
      </cc:Work>
      <cc:License
         rdf:about="http://creativecommons.org/publicdomain/zero/1.0/">
        <cc:permits
           rdf:resource="http://creativecommons.org/ns#Reproduction" />
        <cc:permits
           rdf:resource="http://creativecommons.org/ns#Distribution" />
        <cc:permits
           rdf:resource="http://creativecommons.org/ns#DerivativeWorks" />
      </cc:License>
    </rdf:RDF>
  </metadata>
  <g
     id="layer2">
    <ellipse
       transform="matrix(1.18638,0,0,1.18638,-4.539687,-7.794678)"
       id="path1538"
       style="color:#000000;display:inline;overflow:visible;visibility:visible;fill:url(#radialGradient2308);fill-opacity:1;fill-rule:evenodd;stroke:none;stroke-width:0.5;stroke-linecap:round;stroke-linejoin:miter;stroke-miterlimit:4;stroke-dashoffset:0;stroke-opacity:1;marker:none;marker-start:none;marker-mid:none;marker-end:none"
       cx="24.357143"
       cy="38.714287"
       rx="19.928572"
       ry="9.837245" />
  </g>
  <g
     id="layer1">
    <path
       style="color:#000000;display:inline;overflow:visible;visibility:visible;fill:#000066;fill-opacity:1;fill-rule:nonzero;stroke:none;stroke-width:1;marker:none"
       d="m 25.164261,0.2379876 c -0.473175,0.03238 -0.933088,0.105662 -1.397852,0.158847 h -0.03177 L 22.622711,6.4647852 C 20.810357,6.8775227 19.105298,7.5779755 17.57138,8.529795 L 12.583589,4.9398552 C 11.235257,5.9866593 10.008288,7.207523 8.9301096,8.529795 l 3.4628624,5.05133 c -1.051422,1.606783 -1.842083,3.441487 -2.287395,5.369025 -7.6e-5,0.0091 -6.2e-5,0.03018 0,0.03177 L 4.0693956,19.935 c -0.110357,0.901369 -0.158847,1.832904 -0.158847,2.763936 0,0.761753 0.02103,1.513329 0.09531,2.255625 l 6.0361824,1.080159 c 0.429297,2.096161 1.244809,4.053785 2.382703,5.782026 L 8.8348036,36.741 c 1.028135,1.276384 2.2151054,2.43848 3.4946324,3.462861 l 5.0831,-3.494631 c 1.776475,1.133244 3.759545,1.927892 5.909103,2.319165 l 0.953082,6.004411 c 0.677254,0.06165 1.371775,0.06354 2.065009,0.06354 0.978685,-10e-7 1.91352,-0.03709 2.859244,-0.158847 l 1.143697,-6.131489 c 2.040927,-0.507904 3.958179,-1.388998 5.62318,-2.573319 l 4.892483,3.55817 c 1.26877,-1.079445 2.428987,-2.320188 3.431093,-3.653479 l -3.55817,-5.146638 c 0.963606,-1.664197 1.631298,-3.500366 1.969701,-5.464333 L 48.70537,24.57333 c 0.05266,-0.62659 0.06354,-1.234265 0.06354,-1.874393 0,-1.1124 -0.129295,-2.203101 -0.285924,-3.272246 l -6.09972,-1.111928 c -0.478008,-1.76508 -1.262312,-3.41188 -2.255625,-4.892484 L 43.717578,8.498025 C 42.604813,7.1371705 41.335456,5.8800445 39.937022,4.8127777 L 34.758614,8.370948 C 33.270287,7.4907201 31.668635,6.815334 29.929669,6.4330159 L 28.976588,0.3968346 c -0.867481,-0.102044 -1.742101,-0.158847 -2.636858,-0.158847 -0.241826,0 -0.490706,-0.0076 -0.730696,0 -0.116995,0.0037 -0.232771,-0.0068 -0.349463,0 -0.0316,0.0018 -0.06376,-0.0022 -0.09531,0 z m 0.826004,15.4399164 c 0.116063,-0.0059 0.231944,0 0.349463,0 3.760606,0 6.830416,3.06981 6.830416,6.830416 10e-7,3.760605 -3.069811,6.798646 -6.830416,6.798646 -3.760605,1e-6 -6.798646,-3.038041 -6.798646,-6.798646 1e-6,-3.643086 2.851212,-6.647839 6.449183,-6.830416 z"
       id="path3243-5" />
    <path
       style="color:#000000;display:inline;overflow:visible;visibility:visible;opacity:1;fill:url(#linearGradient3773);fill-opacity:1;fill-rule:nonzero;stroke:#3f4561;stroke-width:1;stroke-linecap:round;stroke-linejoin:round;stroke-miterlimit:4;stroke-dasharray:none;stroke-dashoffset:0;stroke-opacity:1;marker:none;marker-start:none;marker-mid:none;marker-end:none"
       d="M 22.699525,0.94746963 C 22.22635,0.97984519 21.766437,1.0531317 21.301673,1.1063165 h -0.03177 L 20.157975,7.1742671 C 18.345621,7.5870046 16.640562,8.2874574 15.106644,9.2392765 L 10.118853,5.6493371 C 8.770521,6.6961412 7.543552,7.9170049 6.465374,9.2392765 l 3.462862,5.0513305 c -1.051422,1.606783 -1.842083,3.441487 -2.287395,5.369025 -7.6e-5,0.0091 -6.2e-5,0.03018 0,0.03177 l -6.036181,0.95308 c -0.110357,0.901369 -0.158847,1.832904 -0.158847,2.763936 0,0.761753 0.021033,1.513329 0.095308,2.255625 l 6.036182,1.080159 c 0.429297,2.096161 1.244809,4.053785 2.382703,5.782026 l -3.58994,4.924254 c 1.028135,1.276384 2.215105,2.43848 3.494632,3.462861 l 5.0831,-3.494631 c 1.776475,1.133244 3.759545,1.927892 5.909103,2.319165 l 0.953082,6.004411 c 0.677254,0.06165 1.371775,0.06354 2.065009,0.06354 0.978685,-10e-7 1.91352,-0.03709 2.859244,-0.158847 l 1.143697,-6.131489 c 2.040927,-0.507904 3.958179,-1.388998 5.62318,-2.573319 l 4.892483,3.55817 c 1.26877,-1.079445 2.428987,-2.320188 3.431093,-3.653479 l -3.55817,-5.146638 c 0.963606,-1.664197 1.631298,-3.500366 1.969701,-5.464333 l 6.004412,-0.953081 c 0.05266,-0.62659 0.06354,-1.234265 0.06354,-1.874393 0,-1.1124 -0.129295,-2.203101 -0.285924,-3.272246 l -6.09972,-1.111928 c -0.478008,-1.76508 -1.262312,-3.41188 -2.255625,-4.892484 L 41.25284,9.2075071 C 40.140075,7.8466524 38.870718,6.5895264 37.472284,5.5222596 l -5.178408,3.55817 C 30.805549,8.200202 29.203897,7.5248159 27.464931,7.1424978 L 26.51185,1.1063165 C 25.644369,1.0042729 24.769749,0.94746963 23.874992,0.94746963 c -0.241826,1e-8 -0.490706,-0.007609 -0.730696,0 -0.116995,0.003709 -0.232771,-0.006806 -0.349463,0 -0.0316,0.001843 -0.06376,-0.002158 -0.09531,0 z M 23.525529,16.387386 c 0.116063,-0.0059 0.231944,0 0.349463,0 3.760606,0 6.830416,3.06981 6.830416,6.830416 1e-6,3.760605 -3.069811,6.798646 -6.830416,6.798646 -3.760605,1e-6 -6.798646,-3.038041 -6.798646,-6.798646 10e-7,-3.643086 2.851212,-6.647839 6.449183,-6.830416 z"
       id="path3243" />
    <circle
       style="color:#000000;display:inline;overflow:visible;visibility:visible;opacity:0.647727;fill:none;fill-opacity:1;fill-rule:nonzero;stroke:#ffffff;stroke-width:1.6218;stroke-linecap:butt;stroke-linejoin:miter;stroke-miterlimit:4;stroke-dasharray:none;stroke-dashoffset:0;stroke-opacity:1;marker:none;marker-start:none;marker-mid:none;marker-end:none"
       id="path3283"
       transform="matrix(0.616598,0,0,0.616598,9.38202,8.539674)"
       cx="23.511301"
       cy="23.781593"
       r="12.727922" />
    <path
       id="path3285"
       d="M 21.995808,2.2697875 21.103024,8.1448447 C 19.404254,8.531715 16.279442,9.7149239 14.841657,10.607091 L 10.091975,7.0619472 C 8.828145,8.0431461 8.741474,8.109686 7.730867,9.3490892 l 3.434196,5.0932188 c -0.985526,1.506083 -2.169267,4.189994 -2.594285,6.107942 0,0 -6.01779,1.014425 -6.01779,1.014425 -0.103441,0.844879 -0.053728,2.653173 0.015892,3.348948 l 5.748217,1.035517 c 0.402393,1.96479 1.908227,5.127412 2.974807,6.747341 l -3.635002,4.802558 c 0.963699,1.196391 1.156572,1.30587 2.355908,2.266051 l 4.860631,-3.561037 c 1.66514,1.062221 4.970289,2.354376 6.98513,2.721127 l 0.797728,5.801092 c 0.63481,0.05778 2.38853,0.219875 3.274984,0.105749 l 0.892783,-6.03888 c 1.913018,-0.476072 5.218473,-1.832925 6.779125,-2.943023 l 4.855433,3.50816 c 1.189254,-1.011792 1.199909,-1.164249 2.139211,-2.41398 l -3.59802,-5.114311 c 0.903215,-1.5599 2.071087,-4.610599 2.388282,-6.45148 l 5.890949,-0.977443 c 0.04935,-0.58732 0.05176,-2.225166 -0.09506,-3.227305 L 39.182092,20.138242 C 38.73404,18.483783 37.196418,15.502473 36.265359,14.114662 L 40.080075,9.3121061 C 39.037052,8.0365384 38.64924,7.8615206 37.338448,6.8611416 L 32.313994,10.459159 C 30.918941,9.6340986 28.137095,8.3763621 26.507114,8.0180046 L 25.619528,2.2697875 c -0.813114,-0.095648 -3.15904,-0.053175 -3.62372,0 z"
       style="color:#000000;display:inline;overflow:visible;visibility:visible;opacity:0.346591;fill:none;stroke:#ffffff;stroke-width:0.999999;stroke-linecap:butt;stroke-linejoin:miter;stroke-miterlimit:4;stroke-dasharray:none;stroke-dashoffset:0;stroke-opacity:1;marker:none" />
    <path
       style="color:#000000;display:inline;overflow:visible;visibility:visible;opacity:0.5;fill:#ffffff;fill-opacity:1;fill-rule:nonzero;stroke:none;stroke-width:1;stroke-linecap:butt;stroke-linejoin:miter;stroke-miterlimit:4;stroke-dasharray:none;stroke-dashoffset:0;stroke-opacity:1;marker:none;marker-start:none;marker-mid:none;marker-end:none"
       d="M 10.102903,6.2970655 C 8.7545689,7.3438694 8.1656464,7.9719226 7.0874684,9.2941942 l 3.4024586,4.9649588 c -1.0514198,1.598602 -2.1582995,4.166961 -2.3475411,5.728553 0,0 -6.0625,1.044194 -6.0625,1.044194 C 2.0109129,21.595256 1.90625,22.884803 1.90625,22.884803 l 0.1767767,1.5625 c 0.42773,0.08833 0.840155,0.170515 1.28125,0.21875 l 0.5,-1.53125 c 0.344041,0.02848 0.679653,0.0625 1.03125,0.0625 0.351208,0 0.718458,-0.03383 1.0625,-0.0625 l 0.46875,1.53125 c 0.441288,-0.04824 0.884772,-0.130415 1.3125,-0.21875 v -1.5625 c 0.685757,-0.159623 1.332001,-0.387758 1.96875,-0.65625 l 0.9375003,1.28125 c 0.402351,-0.182094 0.775596,-0.375819 1.15625,-0.59375 l -0.5,-1.5 c 0.597233,-0.36225 1.161752,-0.795347 1.6875,-1.25 l 1.28125,0.9375 c 0.325635,-0.29658 0.641113,-0.611862 0.9375,-0.9375 l -0.9375,-1.25 c 0.454846,-0.525748 0.8565,-1.089882 1.21875,-1.6875 l 1.5,0.46875 c 0.217931,-0.380847 0.443294,-0.754094 0.625,-1.15625 l -1.28125,-0.9375 c 0.26849,-0.636749 0.464989,-1.282992 0.625,-1.96875 h 1.59375 c 0.08833,-0.427727 0.139459,-0.871212 0.1875,-1.3125 l -1.5,-0.46875 c 0.02886,-0.343848 0.0625,-0.711097 0.0625,-1.0625 -1e-6,-0.351403 -0.03402,-0.687014 -0.0625,-1.0312496 l 1.5,-0.46875 c -0.04555,-0.4198872 -0.105591,-0.8419986 -0.1875,-1.25 -1.147428,0.399301 -2.55266,1.1531195 -3.568512,1.7834709 z"
       id="path3767" />
    <path
       style="color:#000000;display:inline;overflow:visible;visibility:visible;opacity:0.5;fill:#ffffff;fill-opacity:1;fill-rule:nonzero;stroke:none;stroke-width:1;stroke-linecap:butt;stroke-linejoin:miter;stroke-miterlimit:4;stroke-dasharray:none;stroke-dashoffset:0;stroke-opacity:1;marker:none;marker-start:none;marker-mid:none;marker-end:none"
       d="m 37.236641,17.217754 c -0.383781,0.181376 -0.746638,0.385755 -1.113405,0.595541 l 0.56965,1.734841 c -0.697094,0.4223 -1.35473,0.919689 -1.967878,1.450015 l -1.475909,-1.087512 c -0.380086,0.345899 -0.741772,0.707584 -1.087511,1.087512 l 1.087511,1.475908 c -0.530326,0.613312 -1.027552,1.270943 -1.450015,1.967878 l -0.543756,-0.181252 c -0.04768,0.700283 -0.236379,1.361485 -0.517862,1.967878 l 0.103572,0.07768 c -0.313157,0.74268 -0.564548,1.530398 -0.750901,2.330382 h -1.475908 c -0.136283,0.08545 -0.270553,0.18506 -0.414291,0.258931 -0.07837,0.415267 -0.134912,0.817326 -0.181251,1.242871 l 1.760733,0.569648 c -0.03339,0.401276 -0.05179,0.807195 -0.05179,1.216978 -2e-6,0.409941 0.0184,0.815701 0.05179,1.216977 l -1.760733,0.569648 c 0.05602,0.514755 0.129991,1.02867 0.233038,1.527695 l 1.838412,-0.02589 c 0.128118,0.549987 0.303065,1.107439 0.49197,1.631267 0.744916,-0.28728 1.473833,-0.630185 2.149129,-1.035725 -0.411587,-1.216041 -0.647328,-2.529108 -0.647328,-3.883969 10e-7,-5.197933 3.292381,-9.636655 7.897405,-11.341191 l -1.087511,-0.181253 c -0.222788,-0.822662 -0.511324,-1.628591 -0.880367,-2.382167 -0.01085,-0.02216 -0.01492,-0.05558 -0.02589,-0.07768 l -0.05179,-0.05179 z"
       id="path3770" />
    <g
       id="g3827">
      <ellipse
         transform="matrix(0.38806259,0,0,0.4474956,20.855318,19.314033)"
         id="path4041"
         style="fill:#000000;fill-opacity:0.301961;fill-rule:nonzero;stroke:none;filter:url(#filter4051)"
         cx="35.178562"
         cy="33.859573"
         rx="33.941124"
         ry="29.433319" />
      <ellipse
         transform="matrix(0.46134995,0,0,0.45851088,17.006493,17.627568)"
         id="path4039"
         style="fill:#000000;fill-opacity:1;fill-rule:nonzero;stroke:none"
         cx="35.974056"
         cy="34.389904"
         rx="28.549437"
         ry="28.726213" />
      <path
         id="path3914"
         d="m 35.839182,22.424506 c -2.497751,0.0943 -5.219744,1.889631 -6.232838,4.277727 -1.143947,2.696548 0.87556,7.193512 3.939624,6.615041 1.599172,-2.7501 5.777841,-2.191961 7.541147,0.147001 1.561605,2.071414 1.475908,4.889876 0.308702,7.100143 -0.975376,1.84701 -2.61976,3.682304 -4.82163,4.468828 5.21724,-1.343367 9.069956,-6.081247 9.069956,-11.715972 0,-3.278406 -1.305115,-6.258258 -3.425121,-8.437852 -1.786756,-1.545751 -4.273729,-2.534432 -6.37984,-2.454916 z"
         style="fill:url(#linearGradient3055);fill-opacity:1;fill-rule:evenodd;stroke:none" />
      <path
         id="path4455"
         d="m 22.873398,36.903289 c 1.330543,2.115965 4.544565,3.724727 7.119262,3.408045 2.907254,-0.357587 5.37096,-4.52776 3.553181,-6.993926 -3.181242,-0.0099 -4.787213,-3.907776 -3.643267,-6.604325 1.013095,-2.388097 3.496804,-3.72311 5.994554,-3.817416 2.087245,-0.0788 4.498849,0.427629 6.280933,1.941241 -3.77201,-3.84658 -9.801492,-4.814189 -14.681307,-1.996824 -2.839182,1.639199 -4.767255,4.25939 -5.594834,7.185166 -0.44528,2.32025 -0.150441,5.093852 0.971478,6.878039 z"
         style="fill:url(#linearGradient3052);fill-opacity:1;fill-rule:evenodd;stroke:none" />
      <path
         id="path4457"
         d="m 41.39556,40.565322 c 1.167208,-2.210266 1.263183,-5.026355 -0.29842,-7.097767 -1.763306,-2.338962 -5.952519,-2.900956 -7.551606,-0.150319 1.582071,2.759973 -0.990627,6.099737 -3.897879,6.457324 -2.574701,0.316683 -4.97271,-1.166766 -6.303257,-3.282728 -1.111867,-1.768206 -1.879087,-4.109932 -1.459303,-6.410068 -1.44523,5.189947 0.731537,10.895436 5.611354,13.712797 2.839179,1.639204 6.072368,1.998868 9.019954,1.252685 2.232035,-0.774501 3.894965,-2.61822 4.879157,-4.481924 z"
         style="fill:url(#linearGradient3049);fill-opacity:1;fill-rule:evenodd;stroke:none" />
    </g>
  </g>
</svg>
